<?xml version="1.0" encoding="UTF-8"?>
<svg xmlns="http://www.w3.org/2000/svg" xmlns:xlink="http://www.w3.org/1999/xlink"
     width="940.0" height="940.0" viewBox="-4.7 -4.7 9.4 9.4">
<defs>
</defs>
<path d="M-4.521575215069612,-3.2205903272558056 L-4.233776561413724e-16,-4.622084130700831 L4.521575215069612,-3.220590327255806 L4.2493581423946365,2.443929274674412 L4.799537151087866e-16,4.647347091343202 L-4.2493581423946365,2.4439292746744123 Z" fill="#777777" />
<path d="M-4.454753906472525,-3.176759088785327 L-4.1493321191342076e-16,-4.557541161144957 L4.454753906472525,-3.1767590887853276 L5.089272408374463e-16,-1.4831910877007928 Z" fill="#ffffff" />
<path d="M-4.186559746201612,2.404048400801095 L-4.454753906472525,-3.176759088785327 L5.089272408374463e-16,-1.4831910877007928 L4.750484346384601e-16,4.574903392593007 Z" fill="#ffffff" />
<path d="M4.750484346384601e-16,4.574903392593007 L5.089272408374463e-16,-1.4831910877007928 L4.454753906472525,-3.1767590887853276 L4.186559746201612,2.4040484008010945 Z" fill="#ffffff" />
<path d="M-4.376135795863282,-3.146870767403514 L-2.8233635318819,-3.629912650064472 L-1.4587119319544268,-3.146870767403514 L-3.017967422908532,-2.630534613978919 Z" fill="#ffffff" stroke-width="0" />
<path d="M-4.171916125389661,-3.146870767403514 L-2.8361651991700985,-3.564170361739158 L-1.662931602428047,-3.146870767403514 L-3.0034761363526976,-2.7049538530913577 Z" fill="#000000" stroke-width="0" />
<path d="M-3.017967422908532,-2.630534613978919 L-1.4587119319544268,-3.146870767403514 L1.184621972815498e-16,-2.6305346139789187 L-1.5628442154159514,-2.0773390495136517 Z" fill="#ffffff" stroke-width="0" />
<path d="M-2.806709703304934,-2.6305346139789187 L-1.4655473897882956,-3.0766644997927353 L-0.2112577196035972,-2.630534613978919 L-1.5550734321158024,-2.1571519464951074 Z" fill="#000000" stroke-width="0" />
<path d="M-1.5628442154159514,-2.0773390495136517 L1.184621972815498e-16,-2.6305346139789187 L1.562844215415952,-2.0773390495136517 L5.089272408374463e-16,-1.4831910877007928 Z" fill="#ffffff" stroke-width="0" />
<path d="M-1.344046025257718,-2.0773390495136517 L1.1903652928157897e-16,-2.555393771664431 L1.3440460252577184,-2.0773390495136517 L0.0,-1.569005991976865 Z" fill="#000000" stroke-width="0" />
<path d="M-2.8233635318819,-3.629912650064472 L-1.3675894689267398,-4.08277998960325 L-1.1082354473826397e-16,-3.629912650064472 L-1.4587119319544268,-3.146870767403514 Z" fill="#ffffff" stroke-width="0" />
<path d="M-2.6257280846501665,-3.629912650064472 L-1.3735958505883856,-4.021089076052349 L-0.19763544723173318,-3.629912650064472 L-1.4519399406080609,-3.21642517740443 Z" fill="#000000" stroke-width="0" />
<path d="M-1.4587119319544268,-3.146870767403514 L-1.1082354473826397e-16,-3.629912650064472 L1.4587119319544268,-3.146870767403514 L1.184621972815498e-16,-2.6305346139789187 Z" fill="#ffffff" stroke-width="0" />
<path d="M-1.2544922614808072,-3.146870767403514 L-1.1132603976995847e-16,-3.5641703617391585 L1.2544922614808072,-3.146870767403514 L1.1789338078810132e-16,-2.7049538530913577 Z" fill="#000000" stroke-width="0" />
<path d="M1.184621972815498e-16,-2.6305346139789187 L1.4587119319544268,-3.146870767403514 L3.0179674229085314,-2.6305346139789187 L1.562844215415952,-2.0773390495136517 Z" fill="#ffffff" stroke-width="0" />
<path d="M0.21125771960359743,-2.630534613978919 L1.4655473897882956,-3.0766644997927353 L2.806709703304934,-2.6305346139789187 L1.5550734321158024,-2.1571519464951074 Z" fill="#000000" stroke-width="0" />
<path d="M-1.3675894689267398,-4.08277998960325 L-4.164413051446141e-16,-4.508214554027949 L1.3675894689267394,-4.08277998960325 L-1.1082354473826397e-16,-3.629912650064472 Z" fill="#ffffff" stroke-width="0" />
<path d="M-1.1761269432769959,-4.08277998960325 L0.0,-4.450211736557576 L1.1761269432769956,-4.08277998960325 L-1.1032556557109951e-16,-3.6950641200746874 Z" fill="#000000" stroke-width="0" />
<path d="M-1.1082354473826397e-16,-3.629912650064472 L1.3675894689267394,-4.08277998960325 L2.8233635318818995,-3.629912650064472 L1.4587119319544268,-3.146870767403514 Z" fill="#ffffff" stroke-width="0" />
<path d="M0.19763544723173296,-3.629912650064472 L1.3735958505883856,-4.021089076052349 L2.6257280846501665,-3.629912650064472 L1.4519399406080609,-3.21642517740443 Z" fill="#000000" stroke-width="0" />
<path d="M1.4587119319544268,-3.146870767403514 L2.8233635318818995,-3.629912650064472 L4.376135795863282,-3.146870767403514 L3.0179674229085314,-2.6305346139789187 Z" fill="#ffffff" stroke-width="0" />
<path d="M1.662931602428047,-3.146870767403514 L2.8361651991700985,-3.5641703617391585 L4.171916125389661,-3.146870767403514 L3.0034761363526976,-2.704953853091358 Z" fill="#000000" stroke-width="0" />
<path d="M-4.117049082868468,2.339507438349595 L-4.199934010603962,0.5843496540809101 L-2.8924376176465647,1.2024502041845448 L-2.8335089129574977,3.001806380638893 Z" fill="#ffffff" stroke-width="0" />
<path d="M-4.035412895678491,2.2637078726504494 L-4.105338476828572,0.7517065109049974 L-2.9824354989904505,1.286013640382695 L-2.9302237482504583,2.8307000905541884 Z" fill="#c0c0cf" stroke-width="0" />
<path d="M-2.8335089129574977,3.001806380638893 L-2.8924376176465647,1.2024502041845448 L-1.4956185907234885,1.8627767745573551 L-1.464128894378832,3.7083981641743127 Z" fill="#ffffff" stroke-width="0" />
<path d="M-2.744466221591584,2.92599877519811 L-2.7935944032867157,1.3758692608274308 L-1.5941003611335671,1.9466204576248105 L-1.5652610150443973,3.5309632529798316 Z" fill="#c0c0cf" stroke-width="0" />
<path d="M-1.464128894378832,3.7083981641743127 L-1.4956185907234885,1.8627767745573551 L4.862615626758992e-16,2.5698094506326106 L4.756693141954129e-16,4.463879792918007 Z" fill="#ffffff" stroke-width="0" />
<path d="M-1.3668537815033073,3.6327515827470966 L-1.39215808700893,2.0427099675266076 L-0.10796032264621482,2.6537654502356722 L-0.10593967071533494,4.2796349600636 Z" fill="#000000" stroke-width="0" />
<path d="M-4.199934010603962,0.5843496540809101 L-4.286224804328809,-1.2429301958842822 L-2.953869470181913,-0.6733382400678201 L-2.8924376176465647,1.2024502041845448 Z" fill="#ffffff" stroke-width="0" />
<path d="M-4.116951718538811,0.5005932989536668 L-4.189757146932446,-1.073679021177222 L-3.045535992721737,-0.580816647520134 L-2.991111701664927,1.0293278843936544 Z" fill="#000000" stroke-width="0" />
<path d="M-2.8924376176465647,1.2024502041845448 L-2.953869470181913,-0.6733382400678201 L-1.528492586726062,-0.0639788702244597 L-1.4956185907234885,1.8627767745573551 Z" fill="#ffffff" stroke-width="0" />
<path d="M-2.8017589702650816,1.1182546736692944 L-2.8529788761153885,-0.4978745019340953 L-1.6290000279396213,0.029342739416511554 L-1.5988960218116741,1.6831619720948734 Z" fill="#c0c0cf" stroke-width="0" />
<path d="M-1.4956185907234885,1.8627767745573551 L-1.528492586726062,-0.0639788702244597 L4.97336293463699e-16,0.5894632406083207 L4.862615626758992e-16,2.5698094506326106 Z" fill="#ffffff" stroke-width="0" />
<path d="M-1.3963663349338888,1.77827712915596 L-1.4227857182539454,0.11816759095829993 L-0.11040904239255378,0.6834613553822111 L-0.10829658421489985,2.383200577831426 Z" fill="#000000" stroke-width="0" />
<path d="M-4.286224804328809,-1.2429301958842822 L-4.376135795863282,-3.146870767403514 L-3.017967422908532,-2.630534613978919 L-2.953869470181913,-0.6733382400678201 Z" fill="#ffffff" stroke-width="0" />
<path d="M-4.201853612407968,-1.3352409842024715 L-4.27772053426753,-2.975712000337355 L-3.1113642804896515,-2.5283488162738936 L-3.05458376731727,-0.8484953716357853 Z" fill="#000000" stroke-width="0" />
<path d="M-2.953869470181913,-0.6733382400678201 L-3.017967422908532,-2.630534613978919 L-1.5628442154159514,-2.0773390495136517 L-1.528492586726062,-0.0639788702244597 Z" fill="#ffffff" stroke-width="0" />
<path d="M-2.861494775989899,-0.7665746101290669 L-2.9149428989441217,-2.4530101756298093 L-1.665462016706671,-1.9737640241270977 L-1.6340083000200483,-0.24579594657408232 Z" fill="#c0c0cf" stroke-width="0" />
<path d="M-1.528492586726062,-0.0639788702244597 L-1.5628442154159514,-2.0773390495136517 L5.089272408374463e-16,-1.4831910877007928 L4.97336293463699e-16,0.5894632406083207 Z" fill="#ffffff" stroke-width="0" />
<path d="M-1.4271814591544971,-0.15804670625095985 L-1.4547912867925545,-1.8929599574295646 L-0.11297142221477659,-1.3782966158366499 L-0.1107607557445413,0.4004635731036685 Z" fill="#c0c0cf" stroke-width="0" />
<path d="M4.756693141954129e-16,4.463879792918007 L1.4641288943788324,3.7083981641743127 L1.4956185907234887,1.8627767745573547 L4.862615626758992e-16,2.5698094506326106 Z" fill="#ffffff" stroke-width="0" />
<path d="M0.10593967071533543,4.2796349600636 L1.366853781503308,3.6327515827470966 L1.3921580870089307,2.0427099675266076 L0.1079603226462153,2.6537654502356722 Z" fill="#c0c0cf" stroke-width="0" />
<path d="M4.862615626758992e-16,2.5698094506326106 L1.4956185907234887,1.8627767745573547 L1.5284925867260626,-0.0639788702244597 L4.97336293463699e-16,0.5894632406083207 Z" fill="#ffffff" stroke-width="0" />
<path d="M0.10829658421490033,2.383200577831426 L1.3963663349338895,1.77827712915596 L1.422785718253946,0.11816759095829993 L0.11040904239255428,0.6834613553822111 Z" fill="#000000" stroke-width="0" />
<path d="M4.97336293463699e-16,0.5894632406083207 L1.5284925867260626,-0.0639788702244597 L1.562844215415952,-2.0773390495136517 L5.089272408374463e-16,-1.4831910877007928 Z" fill="#ffffff" stroke-width="0" />
<path d="M0.1107607557445418,0.4004635731036685 L1.4271814591544978,-0.15804670625095985 L1.4547912867925552,-1.8929599574295646 L0.1129714222147771,-1.3782966158366499 Z" fill="#000000" stroke-width="0" />
<path d="M1.4641288943788324,3.7083981641743127 L2.833508912957498,3.001806380638893 L2.892437617646565,1.2024502041845448 L1.4956185907234887,1.8627767745573547 Z" fill="#ffffff" stroke-width="0" />
<path d="M1.5652610150443977,3.5309632529798316 L2.7444662215915834,2.925998775198109 L2.793594403286716,1.3758692608274308 L1.5941003611335676,1.9466204576248105 Z" fill="#c0c0cf" stroke-width="0" />
<path d="M1.4956185907234887,1.8627767745573547 L2.892437617646565,1.2024502041845448 L2.9538694701819135,-0.6733382400678202 L1.5284925867260626,-0.0639788702244597 Z" fill="#ffffff" stroke-width="0" />
<path d="M1.5988960218116748,1.6831619720948734 L2.801758970265082,1.1182546736692942 L2.852978876115389,-0.49787450193409544 L1.629000027939622,0.029342739416511554 Z" fill="#c0c0cf" stroke-width="0" />
<path d="M1.5284925867260626,-0.0639788702244597 L2.9538694701819135,-0.6733382400678202 L3.0179674229085314,-2.6305346139789187 L1.562844215415952,-2.0773390495136517 Z" fill="#ffffff" stroke-width="0" />
<path d="M1.6340083000200487,-0.24579594657408232 L2.8614947759898994,-0.7665746101290669 L2.914942898944122,-2.4530101756298097 L1.6654620167066714,-1.9737640241270977 Z" fill="#c0c0cf" stroke-width="0" />
<path d="M2.833508912957498,3.001806380638893 L4.117049082868468,2.339507438349595 L4.199934010603962,0.5843496540809099 L2.892437617646565,1.2024502041845448 Z" fill="#ffffff" stroke-width="0" />
<path d="M2.9302237482504587,2.830700090554188 L4.035412895678491,2.263707872650449 L4.105338476828572,0.7517065109049972 L2.982435498990451,1.2860136403826947 Z" fill="#000000" stroke-width="0" />
<path d="M2.892437617646565,1.2024502041845448 L4.199934010603962,0.5843496540809099 L4.286224804328809,-1.2429301958842827 L2.9538694701819135,-0.6733382400678202 Z" fill="#ffffff" stroke-width="0" />
<path d="M2.9911117016649276,1.029327884393654 L4.116951718538811,0.5005932989536666 L4.189757146932446,-1.0736790211772222 L3.0455359927217374,-0.5808166475201342 Z" fill="#000000" stroke-width="0" />
<path d="M2.9538694701819135,-0.6733382400678202 L4.286224804328809,-1.2429301958842827 L4.376135795863282,-3.146870767403514 L3.0179674229085314,-2.6305346139789187 Z" fill="#ffffff" stroke-width="0" />
<path d="M3.0545837673172707,-0.8484953716357855 L4.201853612407968,-1.3352409842024717 L4.27772053426753,-2.9757120003373556 L3.1113642804896515,-2.5283488162738936 Z" fill="#c0c0cf" stroke-width="0" />
</svg>