<?xml version="1.0" encoding="utf-8"?>
<!-- Generator: Adobe Illustrator 25.0.0, SVG Export Plug-In . SVG Version: 6.00 Build 0)  -->
<svg version="1.1" id="Layer_1" xmlns="http://www.w3.org/2000/svg" xmlns:xlink="http://www.w3.org/1999/xlink" x="0px" y="0px"
	 viewBox="0 0 940 940" style="enable-background:new 0 0 940 940;" xml:space="preserve">
<style type="text/css">
	.st0{fill:#787878;}
	.st1{fill:#FFFFFF;}
	.st2{fill:url(#SVGID_1_);}
	.st3{fill:url(#SVGID_2_);}
	.st4{fill:url(#SVGID_3_);}
	.st5{fill:url(#SVGID_4_);}
	.st6{fill:url(#SVGID_5_);}
	.st7{fill:url(#SVGID_6_);}
	.st8{fill:url(#SVGID_7_);}
	.st9{fill:url(#SVGID_8_);}
	.st10{fill:url(#SVGID_9_);}
	.st11{fill:url(#SVGID_10_);}
</style>
<path class="st0" d="M18.3,146.4l452.2-140l452.2,140.2L895.5,713l-425,220.2L45.5,713L18.3,146.4z"/>
<path class="st1" d="M25.1,150.8l445.4-138l445.4,138L470.5,320.2L25.1,150.8z"/>
<path class="st1" d="M51.9,709L25.1,150.8l445.4,169.4V926L51.9,709z"/>
<path class="st1" d="M470.5,926V320.2l445.4-169.4l-26.8,558L470.5,926z"/>
<path class="st1" d="M32.9,153.8l155.2-48.2l136.4,48.2l-156,51.6L32.9,153.8z"/>
<path class="st1" d="M168.7,205.4l156-51.6l145.8,51.6l-156.2,55.4L168.7,205.4z"/>
<path class="st1" d="M314.3,260.8l156.2-55.4l156.2,55.4l-156.2,59.4L314.3,260.8z"/>
<path class="st1" d="M188.1,105.6l145.6-45.2l136.8,45.2l-145.8,48.2L188.1,105.6z"/>
<path class="st1" d="M324.7,153.8l145.8-48.4l145.8,48.2l-145.8,51.8L324.7,153.8z"/>
<path class="st1" d="M470.5,205.4l145.8-51.6l156,51.6l-145.6,55.4L470.5,205.4z"/>
<path class="st1" d="M333.7,60.2l136.8-42.6l136.8,42.6l-136.8,45.4L333.7,60.2z"/>
<path class="st1" d="M470.5,105.6l136.8-45.2l145.6,45.2l-136.4,48.2L470.5,105.6z"/>
<path class="st1" d="M616.3,153.8l136.4-48.2l155.2,48.2l-135.8,51.6L616.3,153.8z"/>
<g>
	<path d="M53.3,153.8L186.9,112l117.4,41.8l-134,44.2L53.3,153.8z"/>
	<path d="M189.9,205.4l134.2-44.6l125.4,44.6l-134.6,47.4L189.9,205.4z"/>
	<path d="M336.1,260.8L470.5,213l134.4,47.8l-134.4,50.8L336.1,260.8z"/>
	<path d="M207.9,105.6l125.2-39.2l117.6,39.2l-125.4,41.2L207.9,105.6z"/>
	<path d="M345.1,153.8L470.5,112l125.4,41.8L470.5,198L345.1,153.8z"/>
	<path d="M491.7,205.4l125.4-44.6l134.2,44.6l-125.2,47.4L491.7,205.4z"/>
	<path d="M352.9,60.2l117.6-36.8l117.6,36.8L470.5,99L352.9,60.2z"/>
	<path d="M490.3,105.6l117.6-39.2l125.2,39.2l-117.4,41.2L490.3,105.6z"/>
	<path d="M636.7,153.8L754.1,112l133.6,41.8L770.9,198L636.7,153.8z"/>
</g>
<path class="st1" d="M58.9,702.4L50.5,527l130.8,61.8l5.8,180L58.9,702.4z"/>
<path class="st1" d="M187.1,768.8l-5.8-180l139.6,66l3.2,184.6L187.1,768.8z"/>
<path class="st1" d="M324.1,839.4l-3.2-184.6l149.6,70.8V915L324.1,839.4z"/>
<path class="st1" d="M50.5,527l-8.6-182.8l133.2,57l6.2,187.6L50.5,527z"/>
<path class="st1" d="M181.3,588.8l-6.2-187.6l142.6,61l3.2,192.6L181.3,588.8z"/>
<path class="st1" d="M320.9,654.8l-3.2-192.6l152.8,65.4v198L320.9,654.8z"/>
<path class="st1" d="M41.9,344.2l-9-190.4l135.8,51.6l6.4,195.8L41.9,344.2z"/>
<g>
	<path d="M333.9,831.8l-2.6-159l128.4,61l0.2,162.6L333.9,831.8z"/>
	<path d="M58.9,518.6l-7.2-157.4l114.4,49.2l5.4,161L58.9,518.6z"/>
	<path d="M330.9,646.4l-2.6-166L459.5,537l0.2,170L330.9,646.4z"/>
	<path d="M50.3,335l-7.6-164l116.6,44.8l5.6,168L50.3,335z"/>
</g>
<path class="st1" d="M175.1,401.2l-6.4-195.8l145.6,55.4l3.4,201.4L175.1,401.2z"/>
<path class="st1" d="M317.7,462.2l-3.4-201.4l156.2,59.4v207.2L317.7,462.2z"/>
<g>
	
		<linearGradient id="SVGID_1_" gradientUnits="userSpaceOnUse" x1="-114.1091" y1="829.1894" x2="306.5387" y2="132.3123" gradientTransform="matrix(1 0 0 -1 0 1088)">
		<stop  offset="0" style="stop-color:#E5E2DF"/>
		<stop  offset="0" style="stop-color:#DED9D6"/>
		<stop  offset="6.299578e-02" style="stop-color:#CFCAC9"/>
		<stop  offset="0.1833" style="stop-color:#A8A4A7"/>
		<stop  offset="0.264" style="stop-color:#858085"/>
		<stop  offset="0.5225" style="stop-color:#F3F4F4"/>
		<stop  offset="0.5842" style="stop-color:#E5E5E6"/>
		<stop  offset="0.7027" style="stop-color:#C0BEC0"/>
		<stop  offset="0.8647" style="stop-color:#5B555E"/>
		<stop  offset="1" style="stop-color:#D1D3D4"/>
		<stop  offset="1" style="stop-color:#A7A9AC"/>
	</linearGradient>
	<path class="st2" d="M66.9,694.8l-7-151.2L172.3,597l5.2,154.4L66.9,694.8z"/>
	
		<linearGradient id="SVGID_2_" gradientUnits="userSpaceOnUse" x1="-45.2264" y1="870.768" x2="375.4212" y2="173.8908" gradientTransform="matrix(1 0 0 -1 0 1088)">
		<stop  offset="0" style="stop-color:#E5E2DF"/>
		<stop  offset="0" style="stop-color:#DED9D6"/>
		<stop  offset="6.299578e-02" style="stop-color:#CFCAC9"/>
		<stop  offset="0.1833" style="stop-color:#A8A4A7"/>
		<stop  offset="0.264" style="stop-color:#858085"/>
		<stop  offset="0.5225" style="stop-color:#F3F4F4"/>
		<stop  offset="0.5842" style="stop-color:#E5E5E6"/>
		<stop  offset="0.7027" style="stop-color:#C0BEC0"/>
		<stop  offset="0.8647" style="stop-color:#5B555E"/>
		<stop  offset="1" style="stop-color:#D1D3D4"/>
		<stop  offset="1" style="stop-color:#A7A9AC"/>
	</linearGradient>
	<path class="st3" d="M196.1,761.2l-5-155l120,57l2.8,158.4L196.1,761.2z"/>
	
		<linearGradient id="SVGID_3_" gradientUnits="userSpaceOnUse" x1="33.7071" y1="918.4139" x2="454.3551" y2="221.5368" gradientTransform="matrix(1 0 0 -1 0 1088)">
		<stop  offset="0" style="stop-color:#E5E2DF"/>
		<stop  offset="0" style="stop-color:#DED9D6"/>
		<stop  offset="6.299578e-02" style="stop-color:#CFCAC9"/>
		<stop  offset="0.1833" style="stop-color:#A8A4A7"/>
		<stop  offset="0.264" style="stop-color:#858085"/>
		<stop  offset="0.5225" style="stop-color:#F3F4F4"/>
		<stop  offset="0.5842" style="stop-color:#E5E5E6"/>
		<stop  offset="0.7027" style="stop-color:#C0BEC0"/>
		<stop  offset="0.8647" style="stop-color:#5B555E"/>
		<stop  offset="1" style="stop-color:#D1D3D4"/>
		<stop  offset="1" style="stop-color:#A7A9AC"/>
	</linearGradient>
	<path class="st4" d="M190.3,580.4l-5.2-161.6l122.4,52.8l3,165.4L190.3,580.4z"/>
	
		<linearGradient id="SVGID_4_" gradientUnits="userSpaceOnUse" x1="116.2398" y1="968.2322" x2="536.8875" y2="271.355" gradientTransform="matrix(1 0 0 -1 0 1088)">
		<stop  offset="0" style="stop-color:#E5E2DF"/>
		<stop  offset="0" style="stop-color:#DED9D6"/>
		<stop  offset="6.299578e-02" style="stop-color:#CFCAC9"/>
		<stop  offset="0.1833" style="stop-color:#A8A4A7"/>
		<stop  offset="0.264" style="stop-color:#858085"/>
		<stop  offset="0.5225" style="stop-color:#F3F4F4"/>
		<stop  offset="0.5842" style="stop-color:#E5E5E6"/>
		<stop  offset="0.7027" style="stop-color:#C0BEC0"/>
		<stop  offset="0.8647" style="stop-color:#5B555E"/>
		<stop  offset="1" style="stop-color:#D1D3D4"/>
		<stop  offset="1" style="stop-color:#A7A9AC"/>
	</linearGradient>
	<path class="st5" d="M184.3,391.8l-5.4-168.6l125,48l3.2,172.8L184.3,391.8z"/>
	
		<linearGradient id="SVGID_5_" gradientUnits="userSpaceOnUse" x1="199.0352" y1="1018.2088" x2="619.6829" y2="321.3318" gradientTransform="matrix(1 0 0 -1 0 1088)">
		<stop  offset="0" style="stop-color:#E5E2DF"/>
		<stop  offset="0" style="stop-color:#DED9D6"/>
		<stop  offset="6.299578e-02" style="stop-color:#CFCAC9"/>
		<stop  offset="0.1833" style="stop-color:#A8A4A7"/>
		<stop  offset="0.264" style="stop-color:#858085"/>
		<stop  offset="0.5225" style="stop-color:#F3F4F4"/>
		<stop  offset="0.5842" style="stop-color:#E5E5E6"/>
		<stop  offset="0.7027" style="stop-color:#C0BEC0"/>
		<stop  offset="0.8647" style="stop-color:#5B555E"/>
		<stop  offset="1" style="stop-color:#D1D3D4"/>
		<stop  offset="1" style="stop-color:#A7A9AC"/>
	</linearGradient>
	<path class="st6" d="M327.7,452.8l-2.8-173.6l134.2,51.4l0.2,177.8L327.7,452.8z"/>
</g>
<path class="st1" d="M470.5,915l146.4-75.6l3.2-184.6l-149.6,70.8V915z"/>
<path class="st1" d="M470.5,725.6l149.6-70.8l3.2-192.6l-152.8,65.2V725.6z"/>
<path class="st1" d="M470.5,527.4L623.3,462l3.4-201.4l-156.2,59.6V527.4z"/>
<path class="st1" d="M616.9,839.4l137-70.6l6-180l-139.6,66L616.9,839.4z"/>
<path class="st1" d="M620.1,654.8l139.6-66l6.2-187.6l-142.6,61L620.1,654.8z"/>
<path class="st1" d="M623.3,462.2l142.6-61l6.4-195.8l-145.6,55.4L623.3,462.2z"/>
<path class="st1" d="M753.9,768.8l128.4-66.2l8.2-175.6l-130.8,61.8L753.9,768.8z"/>
<path class="st1" d="M759.7,588.8L890.5,527l8.6-182.8l-133.2,57L759.7,588.8z"/>
<g>
	<path d="M481.3,706.8l128.8-60.4l2.6-166l-131.2,56.4L481.3,706.8z"/>
	<path d="M481.5,508.6l131.6-55.8l2.8-173.6l-134.2,51.4L481.5,508.6z"/>
	<path d="M763.5,751.6l110.6-56.8l7-151.2L768.9,597L763.5,751.6z"/>
	<path d="M769.7,571.4l112.6-52.8l7.2-157.4l-114.4,49.2L769.7,571.4z"/>
</g>
<path class="st1" d="M765.9,401.2l133.2-57l9-190.4l-135.8,51.6L765.9,401.2z"/>
<g>
	
		<linearGradient id="SVGID_6_" gradientUnits="userSpaceOnUse" x1="358.6808" y1="490.047" x2="587.2853" y2="261.4424" gradientTransform="matrix(1 0 0 -1 0 1088)">
		<stop  offset="0" style="stop-color:#E5E2DF"/>
		<stop  offset="0" style="stop-color:#DED9D6"/>
		<stop  offset="6.299578e-02" style="stop-color:#CFCAC9"/>
		<stop  offset="0.1833" style="stop-color:#A8A4A7"/>
		<stop  offset="0.264" style="stop-color:#858085"/>
		<stop  offset="0.5225" style="stop-color:#F3F4F4"/>
		<stop  offset="0.5842" style="stop-color:#E5E5E6"/>
		<stop  offset="0.7027" style="stop-color:#C0BEC0"/>
		<stop  offset="0.8647" style="stop-color:#5B555E"/>
		<stop  offset="1" style="stop-color:#D1D3D4"/>
		<stop  offset="1" style="stop-color:#A7A9AC"/>
	</linearGradient>
	<path class="st7" d="M481.1,896.4l126-64.6l2.6-159l-128.4,61L481.1,896.4z"/>
	
		<linearGradient id="SVGID_7_" gradientUnits="userSpaceOnUse" x1="465.6307" y1="596.9969" x2="694.2353" y2="368.3924" gradientTransform="matrix(1 0 0 -1 0 1088)">
		<stop  offset="0" style="stop-color:#E5E2DF"/>
		<stop  offset="0" style="stop-color:#DED9D6"/>
		<stop  offset="6.299578e-02" style="stop-color:#CFCAC9"/>
		<stop  offset="0.1833" style="stop-color:#A8A4A7"/>
		<stop  offset="0.264" style="stop-color:#858085"/>
		<stop  offset="0.5225" style="stop-color:#F3F4F4"/>
		<stop  offset="0.5842" style="stop-color:#E5E5E6"/>
		<stop  offset="0.7027" style="stop-color:#C0BEC0"/>
		<stop  offset="0.8647" style="stop-color:#5B555E"/>
		<stop  offset="1" style="stop-color:#D1D3D4"/>
		<stop  offset="1" style="stop-color:#A7A9AC"/>
	</linearGradient>
	<path class="st8" d="M627.1,821.6l118-60.4l5-155l-120,57L627.1,821.6z"/>
	
		<linearGradient id="SVGID_8_" gradientUnits="userSpaceOnUse" x1="560.8807" y1="692.2469" x2="789.4854" y2="463.6425" gradientTransform="matrix(1 0 0 -1 0 1088)">
		<stop  offset="0" style="stop-color:#E5E2DF"/>
		<stop  offset="0" style="stop-color:#DED9D6"/>
		<stop  offset="6.299578e-02" style="stop-color:#CFCAC9"/>
		<stop  offset="0.1833" style="stop-color:#A8A4A7"/>
		<stop  offset="0.264" style="stop-color:#858085"/>
		<stop  offset="0.5225" style="stop-color:#F3F4F4"/>
		<stop  offset="0.5842" style="stop-color:#E5E5E6"/>
		<stop  offset="0.7027" style="stop-color:#C0BEC0"/>
		<stop  offset="0.8647" style="stop-color:#5B555E"/>
		<stop  offset="1" style="stop-color:#D1D3D4"/>
		<stop  offset="1" style="stop-color:#A7A9AC"/>
	</linearGradient>
	<path class="st9" d="M630.3,636.8l120.2-56.4l5.2-161.6l-122.4,52.8L630.3,636.8z"/>
	
		<linearGradient id="SVGID_9_" gradientUnits="userSpaceOnUse" x1="660.4307" y1="791.797" x2="889.0353" y2="563.1924" gradientTransform="matrix(1 0 0 -1 0 1088)">
		<stop  offset="0" style="stop-color:#E5E2DF"/>
		<stop  offset="0" style="stop-color:#DED9D6"/>
		<stop  offset="6.299578e-02" style="stop-color:#CFCAC9"/>
		<stop  offset="0.1833" style="stop-color:#A8A4A7"/>
		<stop  offset="0.264" style="stop-color:#858085"/>
		<stop  offset="0.5225" style="stop-color:#F3F4F4"/>
		<stop  offset="0.5842" style="stop-color:#E5E5E6"/>
		<stop  offset="0.7027" style="stop-color:#C0BEC0"/>
		<stop  offset="0.8647" style="stop-color:#5B555E"/>
		<stop  offset="1" style="stop-color:#D1D3D4"/>
		<stop  offset="1" style="stop-color:#A7A9AC"/>
	</linearGradient>
	<path class="st10" d="M633.9,444l122.8-52l5.4-168.6l-125,48L633.9,444z"/>
	
		<linearGradient id="SVGID_10_" gradientUnits="userSpaceOnUse" x1="758.1807" y1="889.547" x2="986.7853" y2="660.9424" gradientTransform="matrix(1 0 0 -1 0 1088)">
		<stop  offset="0" style="stop-color:#E5E2DF"/>
		<stop  offset="0" style="stop-color:#DED9D6"/>
		<stop  offset="6.299578e-02" style="stop-color:#CFCAC9"/>
		<stop  offset="0.1833" style="stop-color:#A8A4A7"/>
		<stop  offset="0.264" style="stop-color:#858085"/>
		<stop  offset="0.5225" style="stop-color:#F3F4F4"/>
		<stop  offset="0.5842" style="stop-color:#E5E5E6"/>
		<stop  offset="0.7027" style="stop-color:#C0BEC0"/>
		<stop  offset="0.8647" style="stop-color:#5B555E"/>
		<stop  offset="1" style="stop-color:#D1D3D4"/>
		<stop  offset="1" style="stop-color:#A7A9AC"/>
	</linearGradient>
	<path class="st11" d="M775.9,383.6L890.7,335l7.6-164l-116.6,44.8L775.9,383.6z"/>
</g>
</svg>
